<svg width="89" height="89" viewBox="0 0 89 89" fill="none" xmlns="http://www.w3.org/2000/svg">
<mask id="path-1-inside-1" fill="white">
<path fill-rule="evenodd" clip-rule="evenodd" d="M44.5 89C69.0767 89 89 69.0767 89 44.5C89 19.9233 69.0767 0 44.5 0C19.9233 0 0 19.9233 0 44.5C0 69.0767 19.9233 89 44.5 89ZM44.5834 85.17C67.2134 85.17 85.5586 67.181 85.5586 44.9904C85.5586 22.7998 67.2134 4.81081 44.5834 4.81081C21.9534 4.81081 3.60811 22.7998 3.60811 44.9904C3.60811 67.181 21.9534 85.17 44.5834 85.17Z"/>
</mask>
<path fill-rule="evenodd" clip-rule="evenodd" d="M44.5 89C69.0767 89 89 69.0767 89 44.5C89 19.9233 69.0767 0 44.5 0C19.9233 0 0 19.9233 0 44.5C0 69.0767 19.9233 89 44.5 89ZM44.5834 85.17C67.2134 85.17 85.5586 67.181 85.5586 44.9904C85.5586 22.7998 67.2134 4.81081 44.5834 4.81081C21.9534 4.81081 3.60811 22.7998 3.60811 44.9904C3.60811 67.181 21.9534 85.17 44.5834 85.17Z" fill="white"/>
<path d="M84 44.5C84 66.3152 66.3152 84 44.5 84V94C71.8381 94 94 71.8381 94 44.5H84ZM44.5 5C66.3152 5 84 22.6848 84 44.5H94C94 17.1619 71.8381 -5 44.5 -5V5ZM5 44.5C5 22.6848 22.6848 5 44.5 5V-5C17.1619 -5 -5 17.1619 -5 44.5H5ZM44.5 84C22.6848 84 5 66.3152 5 44.5H-5C-5 71.8381 17.1619 94 44.5 94V84ZM80.5586 44.9904C80.5586 64.3276 64.5448 80.17 44.5834 80.17V90.17C69.8819 90.17 90.5586 70.0344 90.5586 44.9904H80.5586ZM44.5834 9.81081C64.5448 9.81081 80.5586 25.6532 80.5586 44.9904H90.5586C90.5586 19.9464 69.8819 -0.189189 44.5834 -0.189189V9.81081ZM8.60811 44.9904C8.60811 25.6532 24.6219 9.81081 44.5834 9.81081V-0.189189C19.2848 -0.189189 -1.39189 19.9464 -1.39189 44.9904H8.60811ZM44.5834 80.17C24.6219 80.17 8.60811 64.3276 8.60811 44.9904H-1.39189C-1.39189 70.0344 19.2848 90.17 44.5834 90.17V80.17Z" fill="white" mask="url(#path-1-inside-1)"/>
<line x1="25.0894" y1="41.2522" x2="41.5439" y2="58.1534" stroke="white" stroke-width="5" stroke-linecap="round"/>
<line x1="41.4885" y1="58.1532" x2="70.2107" y2="29.0717" stroke="white" stroke-width="5" stroke-linecap="round"/>
</svg>
